<svg width="53" height="10" viewBox="0 0 53 10" fill="none" xmlns="http://www.w3.org/2000/svg">
<path d="M24.054 1.98154C24.3125 2.17188 24.4588 2.43892 24.4929 2.78267H26.2614C26.2528 2.26279 26.1136 1.8054 25.8437 1.41051C25.5739 1.01563 25.196 0.707389 24.7102 0.485798C24.2273 0.264207 23.6619 0.153412 23.0142 0.153412C22.3778 0.153412 21.8096 0.264207 21.3096 0.485798C20.8096 0.707389 20.4162 1.01563 20.1292 1.41051C19.8452 1.8054 19.7045 2.26705 19.7074 2.79546C19.7045 3.44034 19.9162 3.95313 20.3423 4.33381C20.7685 4.71449 21.3494 4.99432 22.0852 5.1733L23.0355 5.41193C23.3537 5.48864 23.6221 5.57387 23.8409 5.66762C24.0625 5.76137 24.2301 5.875 24.3437 6.00853C24.4602 6.14205 24.5185 6.30682 24.5185 6.50284C24.5185 6.71307 24.4545 6.89915 24.3267 7.06108C24.1989 7.22301 24.0185 7.34943 23.7855 7.44034C23.5554 7.53125 23.2841 7.57671 22.9716 7.57671C22.6534 7.57671 22.3679 7.52841 22.115 7.43182C21.865 7.33239 21.6648 7.18608 21.5142 6.9929C21.3665 6.79688 21.2827 6.55256 21.2628 6.25995H19.4773C19.4915 6.88779 19.6435 7.41478 19.9332 7.84091C20.2258 8.26421 20.6321 8.58381 21.152 8.79972C21.6747 9.01563 22.2883 9.12358 22.9929 9.12358C23.7031 9.12358 24.3096 9.01705 24.8125 8.80398C25.3182 8.58807 25.7045 8.28551 25.9716 7.89631C26.2415 7.50426 26.3778 7.0412 26.3807 6.5071C26.3778 6.14347 26.3111 5.82103 26.1804 5.53978C26.0525 5.25853 25.8721 5.01421 25.6392 4.80682C25.4062 4.59943 25.1307 4.42472 24.8125 4.28267C24.4943 4.14063 24.1449 4.02699 23.7642 3.94176L22.9801 3.75426C22.7898 3.71165 22.6108 3.66051 22.4432 3.60086C22.2756 3.53836 22.1278 3.46591 22 3.38353C21.8721 3.2983 21.7713 3.19745 21.6974 3.08097C21.6264 2.96449 21.5937 2.82813 21.5994 2.67188C21.5994 2.48438 21.6534 2.31676 21.7614 2.16904C21.8721 2.02131 22.0312 1.90625 22.2386 1.82387C22.446 1.73864 22.7003 1.69603 23.0014 1.69603C23.4446 1.69603 23.7954 1.7912 24.054 1.98154Z" fill="white"/>
<path d="M31.0692 3.81818V2.45455H29.8377V0.886367H28.0224V2.45455H27.1275V3.81818H28.0224V7.22728C28.0195 7.65625 28.109 8.01137 28.2908 8.29262C28.4726 8.57387 28.7269 8.78125 29.0536 8.91478C29.3832 9.0483 29.7667 9.10654 30.2042 9.08949C30.44 9.08097 30.6403 9.05682 30.805 9.01705C30.9698 8.98012 31.0976 8.94745 31.1886 8.91904L30.903 7.56818C30.8576 7.57671 30.7922 7.58949 30.707 7.60654C30.6218 7.62074 30.5366 7.62784 30.4513 7.62784C30.3292 7.62784 30.2212 7.60938 30.1275 7.57245C30.0366 7.53551 29.9655 7.47159 29.9144 7.38068C29.8633 7.28693 29.8377 7.15625 29.8377 6.98864V3.81818H31.0692Z" fill="white"/>
<path fill-rule="evenodd" clip-rule="evenodd" d="M33.0018 8.90625C33.3285 9.05114 33.7006 9.12358 34.1182 9.12358C34.4421 9.12358 34.7276 9.08097 34.9748 8.99574C35.2219 8.90767 35.4336 8.78693 35.6097 8.63353C35.7859 8.47728 35.9265 8.29688 36.0316 8.09233H36.0827V9H37.8043V4.58523C37.8043 4.19603 37.729 3.86222 37.5785 3.58381C37.4279 3.30256 37.2219 3.07245 36.9606 2.89347C36.702 2.71449 36.4052 2.58239 36.0699 2.49716C35.7376 2.41193 35.3895 2.36932 35.0259 2.36932C34.5032 2.36932 34.043 2.44887 33.6452 2.60796C33.2503 2.76421 32.9279 2.98864 32.6779 3.28125C32.4279 3.57103 32.2603 3.91478 32.1751 4.3125L33.854 4.44887C33.9165 4.23296 34.0444 4.05398 34.2376 3.91193C34.4307 3.76705 34.6907 3.69461 35.0174 3.69461C35.327 3.69461 35.5657 3.76847 35.7333 3.9162C35.9038 4.06392 35.989 4.27273 35.989 4.54262V4.56818C35.989 4.70739 35.9364 4.8125 35.8313 4.88353C35.7262 4.95455 35.5572 5.00853 35.3242 5.04546C35.0913 5.07955 34.7844 5.11648 34.4038 5.15625C34.0799 5.1875 33.7702 5.24148 33.4748 5.31818C33.1822 5.39489 32.9208 5.50853 32.6907 5.65909C32.4606 5.80966 32.2788 6.00853 32.1452 6.25568C32.0117 6.50284 31.9449 6.80824 31.9449 7.17188C31.9449 7.6037 32.0387 7.96449 32.2262 8.25426C32.4165 8.5412 32.6751 8.75853 33.0018 8.90625ZM35.3455 7.71307C35.141 7.81818 34.9052 7.87074 34.6381 7.87074C34.3597 7.87074 34.1296 7.80682 33.9478 7.67898C33.7688 7.5483 33.6793 7.35938 33.6793 7.11222C33.6793 6.94176 33.7234 6.79972 33.8114 6.68608C33.8995 6.56961 34.0231 6.47728 34.1822 6.40909C34.3413 6.34091 34.5273 6.2912 34.7404 6.25995C34.8398 6.24574 34.9506 6.23012 35.0728 6.21307C35.1949 6.19318 35.3171 6.17188 35.4393 6.14915C35.5614 6.12358 35.6708 6.09659 35.7674 6.06818C35.8668 6.03693 35.9449 6.00284 36.0018 5.96591V6.66051C36.0018 6.89063 35.9435 7.09659 35.827 7.27841C35.7106 7.46023 35.5501 7.60512 35.3455 7.71307Z" fill="white"/>
<path d="M42.9968 4.4233L44.6587 4.32103C44.5792 3.71875 44.3008 3.2429 43.8235 2.89347C43.3491 2.54404 42.6985 2.36932 41.8718 2.36932C41.3121 2.36932 40.8235 2.45171 40.4059 2.61648C39.9911 2.78125 39.6687 3.01563 39.4386 3.31961C39.2113 3.62358 39.0976 3.9858 39.0976 4.40625C39.0976 4.89489 39.2525 5.29688 39.5621 5.61222C39.8746 5.92756 40.3505 6.14915 40.9897 6.27699L42.1232 6.50284C42.4073 6.55966 42.6175 6.64205 42.7539 6.75C42.8903 6.85512 42.9599 6.99006 42.9627 7.15483C42.9599 7.35086 42.8604 7.51137 42.6644 7.63637C42.4712 7.75853 42.2155 7.81961 41.8974 7.81961C41.5735 7.81961 41.3079 7.75142 41.1005 7.61506C40.8931 7.47585 40.7624 7.27415 40.7084 7.00995L38.9229 7.1037C39.011 7.7287 39.3107 8.22301 39.8221 8.58665C40.3363 8.94745 41.0266 9.12784 41.8931 9.12784C42.4613 9.12784 42.9627 9.03835 43.3974 8.85938C43.8349 8.67756 44.1786 8.42472 44.4286 8.10086C44.6815 7.77699 44.8079 7.40057 44.8079 6.97159C44.8079 6.5 44.6516 6.11932 44.3391 5.82955C44.0266 5.53978 43.5522 5.32955 42.9158 5.19887L41.7312 4.96023C41.4272 4.89489 41.2127 4.80824 41.0877 4.70029C40.9627 4.59233 40.9002 4.46023 40.9002 4.30398C40.9002 4.10796 40.9968 3.95171 41.19 3.83523C41.3832 3.71591 41.6204 3.65625 41.9016 3.65625C42.1119 3.65625 42.2922 3.69176 42.4428 3.76279C42.5962 3.83097 42.7198 3.9233 42.8136 4.03978C42.9073 4.15341 42.9684 4.28125 42.9968 4.4233Z" fill="white"/>
<path d="M47.7663 9V5.21591C47.7692 4.93466 47.8231 4.69461 47.9283 4.49574C48.0362 4.29404 48.1839 4.14063 48.3714 4.03551C48.5618 3.9304 48.7805 3.87784 49.0277 3.87784C49.397 3.87784 49.6839 3.99006 49.8885 4.21449C50.0959 4.43892 50.1981 4.75284 50.1953 5.15625V9H52.0106V4.83239C52.0135 4.32103 51.9197 3.88211 51.7294 3.51563C51.5419 3.14631 51.2777 2.86364 50.9368 2.66762C50.5987 2.46875 50.2024 2.36932 49.7479 2.36932C49.2507 2.36932 48.8373 2.48012 48.5078 2.70171C48.1783 2.92046 47.9396 3.22301 47.7919 3.60938H47.7152V0.27273H45.951V9H47.7663Z" fill="white"/>
<path d="M6.93039 9V0.27273H6.40198V8.0412H6.35084L0.7855 0.27273H0.261353V9H0.794023V1.24006H0.845159L6.4105 9H6.93039Z" fill="white"/>
<path d="M13.4588 2.45455V6.67756C13.4588 7.06676 13.3721 7.40483 13.1989 7.69176C13.0256 7.97586 12.7954 8.1946 12.5085 8.34801C12.2216 8.50142 11.9077 8.57813 11.5667 8.57813C11.0412 8.57813 10.6122 8.41051 10.2798 8.07529C9.95027 7.73722 9.7855 7.29546 9.7855 6.75V2.45455H9.26561V6.77131C9.26561 7.24858 9.35936 7.66051 9.54686 8.00711C9.73436 8.35086 9.99289 8.61648 10.3224 8.80398C10.652 8.99148 11.0312 9.08523 11.4602 9.08523C11.9261 9.08523 12.3295 8.9787 12.6704 8.76563C13.0142 8.55256 13.2628 8.27699 13.4162 7.93892H13.4588V9H13.9787V2.45455H13.4588Z" fill="white"/>
<path d="M16.1328 2.45455V9H16.6527V4.6875C16.6527 4.33523 16.7337 4.02273 16.8956 3.75C17.0575 3.47443 17.2791 3.25853 17.5604 3.10228C17.8444 2.94603 18.1683 2.8679 18.5319 2.8679C18.6001 2.8679 18.6569 2.87216 18.7024 2.88068C18.7507 2.88637 18.7919 2.89063 18.826 2.89347V2.36932C18.7862 2.36648 18.7436 2.36506 18.6981 2.36506H18.5618C18.13 2.36506 17.745 2.46733 17.4069 2.67188C17.0689 2.87358 16.8288 3.14205 16.6868 3.47728H16.6399V2.45455H16.1328Z" fill="white"/>
</svg>
